<?xml version="1.0" encoding="UTF-8" standalone="no"?>
<!DOCTYPE svg PUBLIC "-//W3C//DTD SVG 1.1//EN" "http://www.w3.org/Graphics/SVG/1.1/DTD/svg11.dtd">
<svg xmlns="http://www.w3.org/2000/svg" version="1.1" viewBox="0.00 0.00 500.00 500.00">
<path fill="#121414" d="
  M 247.10 268.81
  L 249.19 275.04
  Q 249.37 275.55 249.91 275.51
  Q 256.85 274.93 263.79 275.66
  C 276.18 276.96 288.60 277.87 301.00 279.07
  C 303.09 279.28 305.88 278.37 307.67 280.81
  Q 310.75 285.01 306.46 287.50
  A 0.84 0.83 74.2 0 0 306.04 288.26
  C 306.13 290.34 307.24 293.90 305.93 295.53
  A 0.84 0.84 0.0 0 1 305.11 295.83
  Q 303.60 295.54 303.46 296.69
  C 302.27 306.00 299.87 316.13 299.35 324.51
  Q 298.24 342.66 301.76 360.61
  A 0.56 0.56 0.0 0 1 301.10 361.26
  L 300.09 361.06
  A 0.58 0.58 0.0 0 0 299.83 361.06
  L 298.07 361.38
  Q 297.41 361.51 297.28 360.84
  Q 294.30 344.95 294.48 328.81
  Q 294.48 328.26 293.94 328.25
  L 287.10 328.11
  Q 286.34 328.09 286.39 328.84
  L 288.27 361.35
  A 0.62 0.61 -1.7 0 1 287.65 362.00
  L 285.69 362.00
  Q 285.07 362.00 285.00 361.39
  L 281.19 329.42
  A 0.64 0.64 0.0 0 0 280.58 328.85
  L 273.56 328.52
  Q 273.15 328.50 273.09 328.91
  L 268.61 361.37
  A 1.05 1.03 88.1 0 1 267.80 362.25
  Q 267.03 362.41 266.66 362.13
  Q 266.34 361.90 266.38 361.15
  Q 267.06 344.80 269.54 328.64
  Q 269.64 328.00 269.00 328.00
  L 266.97 328.00
  Q 266.32 328.00 266.31 328.64
  C 266.11 338.70 265.57 350.07 263.87 360.22
  A 1.22 1.22 0.0 0 1 261.80 360.87
  Q 261.27 360.33 261.40 359.27
  Q 261.53 358.14 261.51 357.70
  Q 260.56 342.43 260.70 327.11
  Q 260.70 326.59 261.15 326.33
  L 261.55 326.09
  A 0.42 0.42 0.0 0 0 261.45 325.33
  L 260.72 325.12
  Q 260.10 324.95 260.09 324.31
  L 259.41 297.64
  A 0.75 0.74 25.0 0 0 259.25 297.21
  Q 258.27 296.02 259.36 295.01
  A 0.81 0.80 -21.6 0 0 259.62 294.42
  L 259.45 284.18
  A 1.18 1.18 0.0 0 0 258.21 283.02
  Q 251.36 283.36 244.50 282.70
  Q 242.86 282.55 241.97 284.41
  A 0.52 0.52 0.0 0 1 241.72 284.66
  L 239.32 285.80
  Q 238.78 286.06 238.82 286.66
  C 239.19 291.27 242.90 294.45 240.00 298.80
  Q 239.74 299.18 239.72 299.63
  L 237.36 356.63
  Q 237.34 357.22 237.89 357.42
  C 280.85 373.35 328.15 364.64 365.85 340.55
  Q 382.87 329.68 399.80 312.55
  C 414.82 297.36 421.98 278.06 424.11 257.02
  C 424.25 255.58 425.15 254.47 426.61 254.83
  Q 427.18 254.98 427.15 255.57
  C 423.12 328.48 371.20 397.24 300.68 417.73
  C 257.57 430.25 206.08 428.10 166.56 404.95
  C 126.15 381.27 96.89 341.99 83.84 297.68
  C 75.58 269.66 77.32 237.12 84.57 209.01
  Q 88.21 194.90 94.66 181.84
  C 126.35 117.74 186.90 81.52 258.50 84.77
  C 287.13 86.07 317.70 95.27 341.57 112.77
  A 2.22 2.21 -55.5 0 1 342.12 115.75
  C 341.09 117.35 339.73 117.20 338.09 116.45
  Q 326.96 111.38 316.03 105.88
  C 305.10 100.39 292.85 99.64 281.46 95.41
  Q 268.67 90.66 256.25 90.55
  C 248.92 90.49 251.25 100.62 242.12 99.33
  C 237.61 98.70 237.14 93.19 233.17 91.98
  C 230.27 91.09 225.95 93.04 223.93 95.25
  A 1.54 1.54 0.0 0 0 223.87 97.28
  L 234.53 110.16
  A 2.75 2.75 0.0 0 0 237.48 111.03
  C 244.71 108.72 252.30 109.81 258.78 104.55
  Q 264.21 100.14 268.36 95.04
  A 2.15 2.14 41.8 0 1 271.54 94.87
  C 274.06 97.36 276.70 100.34 280.35 101.01
  Q 289.41 102.68 297.83 106.45
  A 1.30 1.25 -41.5 0 0 298.78 106.49
  C 308.18 103.20 311.05 104.90 318.35 110.40
  A 0.73 0.73 0.0 0 1 317.82 111.71
  C 258.70 104.52 204.51 126.78 173.99 178.08
  C 156.05 208.23 150.52 246.51 162.51 279.48
  Q 171.05 302.96 186.93 322.35
  A 0.54 0.53 24.0 0 0 187.88 321.99
  L 186.77 298.29
  A 1.22 1.19 -71.6 0 0 186.36 297.45
  Q 185.21 296.48 186.44 295.70
  A 0.72 0.72 0.0 0 0 186.13 294.38
  C 183.49 294.11 183.98 290.87 186.46 290.43
  A 0.46 0.46 0.0 0 0 186.83 289.99
  L 186.94 283.97
  A 0.54 0.53 8.3 0 0 186.54 283.44
  Q 183.33 282.53 183.16 278.81
  C 182.89 272.96 183.43 266.60 183.50 262.31
  C 183.74 248.56 182.66 236.52 182.49 223.66
  A 1.58 1.57 10.5 0 0 181.49 222.21
  Q 177.57 220.67 175.49 217.03
  A 0.92 0.92 0.0 0 1 176.31 215.65
  Q 185.81 215.87 195.47 217.90
  C 218.02 222.63 240.66 227.21 263.27 231.68
  Q 263.84 231.79 263.89 232.37
  L 264.32 236.69
  A 0.53 0.53 0.0 0 1 263.73 237.27
  Q 250.35 235.75 237.22 232.76
  A 0.45 0.45 0.0 0 0 236.78 233.49
  Q 237.68 234.57 239.27 234.79
  Q 246.75 235.81 253.90 238.20
  A 1.30 1.28 86.0 0 1 254.68 238.89
  L 261.23 253.12
  Q 261.45 253.61 261.97 253.72
  L 275.91 256.67
  Q 276.36 256.76 276.56 257.17
  L 279.49 263.07
  Q 279.76 263.63 280.38 263.68
  C 284.40 264.00 301.98 262.82 304.70 266.80
  C 306.32 269.16 305.85 274.19 305.68 276.96
  A 1.52 1.51 3.1 0 1 304.09 278.38
  L 298.41 278.13
  Q 297.58 278.09 297.49 277.26
  L 297.07 273.69
  A 0.67 0.66 86.2 0 0 296.40 273.10
  Q 294.93 273.13 293.77 273.04
  Q 272.77 271.40 251.83 269.18
  C 250.33 269.02 249.29 268.69 247.75 268.17
  A 0.51 0.51 0.0 0 0 247.10 268.81
  Z
  M 168.42 133.40
  C 163.97 138.30 161.11 142.86 157.85 148.31
  Q 157.35 149.15 158.30 148.94
  L 163.27 147.84
  A 0.75 0.73 5.3 0 0 163.80 147.41
  Q 167.54 138.96 174.27 132.77
  A 1.24 1.23 26.4 0 1 175.21 132.46
  C 177.82 132.69 184.60 127.95 187.28 126.55
  C 190.41 124.91 192.37 122.16 195.53 120.55
  Q 197.78 119.41 200.04 118.12
  A 1.48 1.45 86.2 0 0 200.70 117.35
  L 204.22 108.00
  A 0.46 0.45 -9.1 0 0 203.51 107.49
  L 189.00 119.01
  Q 188.60 119.34 188.08 119.38
  L 185.43 119.60
  A 1.28 1.26 18.1 0 0 184.57 120.03
  C 180.17 125.00 178.42 128.32 170.79 125.26
  A 0.36 0.36 0.0 0 1 170.58 124.82
  Q 172.32 119.59 177.50 118.28
  A 0.46 0.46 0.0 0 0 177.45 117.38
  C 171.00 116.40 169.97 122.05 166.56 125.90
  A 0.75 0.72 14.2 0 1 166.16 126.13
  L 159.57 127.54
  A 1.06 1.06 0.0 0 0 158.75 128.31
  Q 156.44 137.05 153.41 145.56
  C 153.10 146.42 153.29 147.42 153.24 148.29
  A 0.55 0.55 0.0 0 0 154.31 148.48
  Q 155.88 143.20 157.89 138.25
  C 159.37 134.59 164.96 133.55 167.95 132.66
  A 0.46 0.45 12.7 0 1 168.42 133.40
  Z
  M 223.65 113.24
  A 2.26 2.26 0.0 0 0 221.39 110.98
  A 2.26 2.26 0.0 0 0 219.13 113.24
  A 2.26 2.26 0.0 0 0 221.39 115.50
  A 2.26 2.26 0.0 0 0 223.65 113.24
  Z
  M 195.64 128.72
  Q 191.10 127.61 188.60 132.08
  Q 184.51 139.37 179.43 146.62
  A 0.41 0.41 0.0 0 0 179.92 147.24
  C 185.74 144.97 191.50 139.51 196.65 135.87
  Q 200.58 133.09 196.80 129.37
  A 2.57 2.53 -15.3 0 0 195.64 128.72
  Z
  M 170.49 155.72
  L 167.95 153.96
  Q 166.29 152.81 165.14 154.46
  C 160.02 161.83 154.96 168.42 148.46 174.71
  C 146.47 176.63 142.51 182.00 140.07 182.61
  A 0.46 0.46 0.0 0 0 139.97 183.46
  Q 146.59 186.74 150.25 181.07
  C 154.93 173.80 162.09 162.87 170.50 156.73
  A 0.62 0.62 0.0 0 0 170.49 155.72
  Z
  M 129.35 166.10
  A 2.10 2.10 0.0 0 0 127.25 164.00
  A 2.10 2.10 0.0 0 0 125.15 166.10
  A 2.10 2.10 0.0 0 0 127.25 168.20
  A 2.10 2.10 0.0 0 0 129.35 166.10
  Z
  M 114.6720 184.6424
  A 3.15 2.74 104.3 0 0 118.1051 182.2668
  A 3.15 2.74 104.3 0 0 116.2280 178.5376
  A 3.15 2.74 104.3 0 0 112.7949 180.9132
  A 3.15 2.74 104.3 0 0 114.6720 184.6424
  Z
  M 94.05 207.80
  Q 98.46 210.45 102.05 207.22
  Q 102.46 206.85 102.55 206.31
  C 103.72 199.09 102.61 192.99 103.55 184.04
  Q 103.68 182.79 103.29 182.15
  Q 102.49 180.85 100.58 181.90
  A 2.03 2.02 86.6 0 0 99.67 182.93
  C 96.58 190.60 96.50 199.08 93.82 207.17
  Q 93.68 207.58 94.05 207.80
  Z
  M 128.64 190.30
  A 2.69 2.69 0.0 0 0 125.95 187.61
  A 2.69 2.69 0.0 0 0 123.26 190.30
  A 2.69 2.69 0.0 0 0 125.95 192.99
  A 2.69 2.69 0.0 0 0 128.64 190.30
  Z
  M 133.37 208.50
  A 5.59 5.59 0.0 0 0 127.78 202.91
  A 5.59 5.59 0.0 0 0 122.19 208.50
  A 5.59 5.59 0.0 0 0 127.78 214.09
  A 5.59 5.59 0.0 0 0 133.37 208.50
  Z
  M 94.19 247.06
  C 97.35 250.00 101.34 250.77 100.52 256.51
  C 99.68 262.50 98.81 267.33 102.31 272.80
  Q 102.59 273.24 103.09 273.34
  C 105.41 273.80 106.59 272.39 106.51 270.08
  C 106.31 263.58 107.67 256.12 107.01 250.65
  Q 106.36 245.33 104.28 239.70
  Q 99.27 226.11 93.68 212.43
  A 0.40 0.40 0.0 0 0 92.92 212.50
  Q 90.41 224.15 89.86 236.23
  Q 89.56 242.76 94.19 247.06
  Z
  M 138.49 226.51
  C 135.40 230.29 134.04 232.96 133.57 238.16
  C 132.99 244.42 129.94 247.85 128.40 253.56
  Q 128.24 254.15 128.83 253.98
  C 131.68 253.17 136.26 252.84 136.69 249.18
  Q 137.80 239.71 139.14 230.27
  Q 139.52 227.62 139.68 227.20
  Q 141.22 223.16 138.49 226.51
  Z
  M 195.1582 226.7488
  A 0.69 0.69 0.0 0 0 194.4587 226.0685
  L 194.1187 226.0732
  A 0.69 0.69 0.0 0 0 193.4384 226.7728
  L 193.6618 242.7712
  A 0.69 0.69 0.0 0 0 194.3613 243.4515
  L 194.7013 243.4468
  A 0.69 0.69 0.0 0 0 195.3816 242.7472
  L 195.1582 226.7488
  Z
  M 125.8463 243.9895
  A 3.09 2.57 65.4 0 0 126.8967 240.1102
  A 3.09 2.57 65.4 0 0 123.2737 238.3705
  A 3.09 2.57 65.4 0 0 122.2233 242.2498
  A 3.09 2.57 65.4 0 0 125.8463 243.9895
  Z
  M 152.90 275.05
  C 153.18 275.56 153.43 276.61 154.04 277.14
  A 0.35 0.34 -81.2 0 0 154.58 276.74
  Q 149.97 265.95 150.46 254.45
  C 150.87 244.85 139.47 246.83 142.37 252.02
  C 146.57 259.56 148.72 267.58 152.90 275.05
  Z
  M 132.8530 265.2526
  A 3.19 2.77 93.9 0 0 135.8336 262.2584
  A 3.19 2.77 93.9 0 0 133.2870 258.8874
  A 3.19 2.77 93.9 0 0 130.3064 261.8816
  A 3.19 2.77 93.9 0 0 132.8530 265.2526
  Z
  M 275.8394 263.0845
  A 0.37 0.37 0.0 0 0 275.5209 262.6694
  L 249.0096 259.1791
  A 0.37 0.37 0.0 0 0 248.5945 259.4977
  L 248.5606 259.7555
  A 0.37 0.37 0.0 0 0 248.8791 260.1706
  L 275.3904 263.6609
  A 0.37 0.37 0.0 0 0 275.8055 263.3423
  L 275.8394 263.0845
  Z
  M 202.24 261.27
  C 201.52 268.47 207.94 271.28 214.51 270.86
  Q 228.23 269.99 241.58 272.64
  A 0.45 0.44 -0.8 0 0 242.10 272.11
  L 240.97 267.07
  Q 240.88 266.63 240.43 266.62
  Q 236.68 266.54 228.26 265.46
  Q 223.60 264.86 210.70 264.97
  Q 205.72 265.02 203.15 261.05
  A 0.50 0.50 0.0 0 0 202.24 261.27
  Z
  M 93.3079 276.5818
  A 3.56 3.31 93.9 0 0 96.8523 273.2551
  A 3.56 3.31 93.9 0 0 93.7921 269.4782
  A 3.56 3.31 93.9 0 0 90.2477 272.8049
  A 3.56 3.31 93.9 0 0 93.3079 276.5818
  Z
  M 158.92 312.11
  Q 155.76 310.02 153.06 308.66
  C 146.89 305.55 147.47 298.37 149.46 292.67
  A 0.77 0.77 0.0 0 0 149.18 291.80
  Q 144.36 288.34 141.23 283.30
  A 0.50 0.50 0.0 0 0 140.33 283.71
  C 143.62 293.92 144.00 304.17 146.71 314.16
  C 148.01 318.96 147.54 322.30 146.13 326.73
  C 144.78 330.96 144.87 333.66 146.71 337.33
  A 0.41 0.40 -53.8 0 0 147.47 337.21
  Q 148.36 331.56 150.01 326.21
  C 151.28 322.14 156.13 318.67 159.16 316.08
  A 2.49 2.49 0.0 0 0 158.92 312.11
  Z
  M 197.01 336.48
  C 196.91 342.45 195.07 361.96 199.25 365.90
  A 0.48 0.47 20.1 0 0 200.05 365.53
  Q 199.51 355.94 200.54 346.43
  Q 200.95 342.73 202.54 339.59
  A 0.73 0.72 31.2 0 1 203.61 339.33
  Q 215.64 347.80 228.73 354.56
  A 0.76 0.76 0.0 0 0 229.84 353.86
  C 229.27 335.12 228.86 316.69 227.42 298.32
  Q 227.37 297.68 226.77 297.48
  L 224.90 296.84
  Q 224.43 296.67 224.34 296.19
  Q 223.87 293.54 225.91 292.43
  Q 226.44 292.14 226.30 291.56
  Q 225.54 288.39 228.40 287.47
  A 0.59 0.58 -52.0 0 0 228.26 286.33
  L 194.33 284.08
  A 0.64 0.64 0.0 0 0 193.88 285.22
  Q 196.27 287.19 194.53 289.72
  A 0.67 0.67 0.0 0 0 195.04 290.77
  L 199.84 291.08
  A 0.68 0.67 88.4 0 1 200.46 291.67
  Q 200.69 293.53 199.08 294.28
  A 0.99 0.99 0.0 0 0 198.50 295.13
  Q 197.36 315.81 197.01 336.48
  Z
  M 268.23 318.27
  L 274.27 318.45
  A 1.03 1.03 0.0 0 1 274.27 320.51
  Q 273.44 320.53 273.25 321.34
  A 0.72 0.72 0.0 0 0 273.95 322.23
  L 293.41 322.29
  A 0.93 0.93 0.0 0 0 294.33 321.57
  Q 296.97 310.16 298.06 298.31
  Q 298.24 296.30 299.97 295.47
  Q 300.46 295.24 300.45 294.69
  L 300.35 291.70
  A 0.96 0.95 0.7 0 0 299.45 290.78
  L 266.33 289.01
  Q 265.91 288.99 265.90 289.42
  L 265.21 321.60
  Q 265.20 322.26 265.85 322.25
  L 270.67 322.24
  A 1.02 1.02 0.0 0 0 270.98 320.25
  L 268.05 319.30
  A 0.53 0.53 0.0 0 1 268.23 318.27
  Z
  M 99.3494 300.6495
  A 2.36 1.83 88.8 0 0 101.1296 298.2517
  A 2.36 1.83 88.8 0 0 99.2506 295.9305
  A 2.36 1.83 88.8 0 0 97.4704 298.3283
  A 2.36 1.83 88.8 0 0 99.3494 300.6495
  Z
  M 169.2827 325.2617
  A 3.84 3.39 99.1 0 0 173.2373 322.0062
  A 3.84 3.39 99.1 0 0 170.4973 317.6783
  A 3.84 3.39 99.1 0 0 166.5427 320.9338
  A 3.84 3.39 99.1 0 0 169.2827 325.2617
  Z
  M 401.77 322.66
  Q 403.71 321.32 404.78 319.30
  A 0.66 0.66 0.0 0 0 403.75 318.50
  Q 400.55 321.44 397.53 324.64
  C 394.30 328.05 392.03 331.83 387.21 334.60
  C 383.24 336.89 382.32 338.93 379.97 342.72
  Q 375.73 349.55 365.27 359.04
  A 0.85 0.82 -22.0 0 0 365.00 359.65
  L 365.00 360.28
  A 0.36 0.36 0.0 0 0 365.59 360.55
  L 386.55 343.04
  A 0.79 0.79 0.0 0 1 387.84 343.77
  C 386.95 349.45 383.25 352.07 381.42 357.05
  A 0.63 0.63 0.0 0 0 382.53 357.62
  Q 388.95 348.38 394.24 338.49
  C 396.55 334.18 398.75 328.21 401.33 323.16
  A 1.48 1.44 -4.4 0 1 401.77 322.66
  Z
  M 132.7714 327.0614
  A 3.61 3.25 71.4 0 0 134.7002 322.6034
  A 3.61 3.25 71.4 0 0 130.4686 320.2186
  A 3.61 3.25 71.4 0 0 128.5398 324.6766
  A 3.61 3.25 71.4 0 0 132.7714 327.0614
  Z
  M 106.44 327.57
  C 109.86 326.74 113.97 327.52 116.61 329.87
  A 0.55 0.55 0.0 0 0 117.49 329.25
  Q 116.28 326.39 115.09 323.38
  C 112.25 316.26 107.63 324.32 106.00 326.96
  A 0.41 0.41 0.0 0 0 106.44 327.57
  Z
  M 175.79 337.17
  C 176.40 340.88 180.62 342.72 183.82 343.95
  Q 184.30 344.13 184.49 344.61
  C 186.95 350.58 187.59 357.17 191.52 362.20
  Q 191.74 362.49 192.11 362.13
  Q 192.42 361.83 192.23 361.45
  Q 188.43 353.76 188.75 346.45
  C 188.96 341.79 187.60 333.22 182.24 331.96
  C 178.95 331.18 175.17 333.38 175.79 337.17
  Z
  M 289.93 395.50
  C 292.05 397.08 292.30 396.75 295.03 396.19
  Q 314.11 392.30 332.53 386.02
  C 336.94 384.51 342.02 381.91 346.93 380.20
  C 349.75 379.22 353.96 372.09 356.18 369.58
  Q 356.54 369.18 356.18 368.77
  Q 355.78 368.31 355.08 368.88
  Q 347.37 375.17 337.27 378.32
  Q 314.11 385.55 291.52 394.37
  Q 291.22 394.49 290.88 394.48
  Q 290.42 394.47 290.19 394.50
  A 0.56 0.56 0.0 0 0 289.93 395.50
  Z
  M 199.2047 373.4835
  A 2.27 1.74 103.9 0 0 201.4390 371.6980
  A 2.27 1.74 103.9 0 0 200.2953 369.0765
  A 2.27 1.74 103.9 0 0 198.0610 370.8620
  A 2.27 1.74 103.9 0 0 199.2047 373.4835
  Z
  M 140.5032 378.4550
  A 4.16 3.79 87.2 0 0 144.0855 374.1149
  A 4.16 3.79 87.2 0 0 140.0968 370.1450
  A 4.16 3.79 87.2 0 0 136.5145 374.4851
  A 4.16 3.79 87.2 0 0 140.5032 378.4550
  Z
  M 224.98 381.51
  Q 232.79 383.52 240.61 384.34
  C 243.21 384.61 244.07 383.81 245.00 381.58
  Q 247.73 375.06 243.09 371.16
  Q 242.56 370.71 242.28 371.35
  C 239.10 378.68 230.85 377.02 224.86 380.78
  A 0.40 0.40 0.0 0 0 224.98 381.51
  Z
  M 182.6230 379.4327
  A 3.83 3.27 82.0 0 0 185.3282 375.1849
  A 3.83 3.27 82.0 0 0 181.5570 371.8473
  A 3.83 3.27 82.0 0 0 178.8518 376.0951
  A 3.83 3.27 82.0 0 0 182.6230 379.4327
  Z
  M 302.6033 381.6873
  A 3.98 3.50 72.1 0 0 304.7106 376.8243
  A 3.98 3.50 72.1 0 0 300.1567 374.1127
  A 3.98 3.50 72.1 0 0 298.0494 378.9757
  A 3.98 3.50 72.1 0 0 302.6033 381.6873
  Z
  M 274.0426 382.7250
  A 3.35 2.72 107.5 0 0 277.6441 380.3479
  A 3.35 2.72 107.5 0 0 276.0574 376.3350
  A 3.35 2.72 107.5 0 0 272.4559 378.7121
  A 3.35 2.72 107.5 0 0 274.0426 382.7250
  Z
  M 347.91 389.31
  A 2.68 2.68 0.0 0 0 345.23 386.63
  A 2.68 2.68 0.0 0 0 342.55 389.31
  A 2.68 2.68 0.0 0 0 345.23 391.99
  A 2.68 2.68 0.0 0 0 347.91 389.31
  Z
  M 243.97 409.21
  C 254.15 412.18 265.03 411.36 275.21 408.62
  Q 275.69 408.49 275.40 408.09
  L 273.48 405.43
  Q 273.17 405.00 273.24 404.47
  C 274.03 398.46 285.77 400.17 283.31 389.82
  A 2.21 2.20 85.0 0 0 281.30 388.13
  C 269.71 387.48 266.05 406.32 255.78 403.95
  C 252.75 403.25 248.21 400.80 245.50 400.89
  C 240.50 401.06 237.96 407.45 243.97 409.21
  Z"
/>
<circle fill="#121414" cx="295.89" cy="174.48" r="40.64"/>
</svg>
