<?xml version="1.0" encoding="UTF-8" standalone="no"?>
<!DOCTYPE svg PUBLIC "-//W3C//DTD SVG 1.1//EN" "http://www.w3.org/Graphics/SVG/1.1/DTD/svg11.dtd">
<svg xmlns="http://www.w3.org/2000/svg" version="1.1" viewBox="0.00 0.00 500.00 500.00">
<g stroke-width="2.00" fill="none" stroke-linecap="butt">
<path stroke="#66216b" vector-effect="non-scaling-stroke" d="
  M 272.80 287.74
  Q 272.77 288.12 272.49 288.45"
/>
<path stroke="#682c68" vector-effect="non-scaling-stroke" d="
  M 182.79 191.60
  L 181.96 192.33"
/>
<path stroke="#682c68" vector-effect="non-scaling-stroke" d="
  M 191.93 197.58
  Q 191.91 197.12 192.50 196.80"
/>
<path stroke="#3c224b" vector-effect="non-scaling-stroke" d="
  M 186.67 362.93
  Q 186.28 363.19 186.20 362.53
  Q 186.14 362.08 185.70 362.15
  L 181.19 362.88
  A 0.32 0.32 0.0 0 0 181.16 363.50
  Q 183.90 364.22 187.01 363.42"
/>
</g>
<path fill="#5e3860" d="
  M 360.88 145.17
  C 365.75 148.22 370.91 155.22 373.09 158.92
  C 390.61 188.76 386.25 220.62 371.68 250.56
  A 0.12 0.12 0.0 0 1 371.45 250.48
  C 380.62 211.53 366.82 171.09 334.78 146.98
  C 329.48 142.99 323.04 138.23 316.11 134.17
  C 306.19 128.37 296.93 121.55 287.53 114.95
  C 278.65 108.72 271.25 100.12 263.98 92.17
  C 261.13 89.06 258.67 84.18 257.72 80.76
  C 256.16 75.14 257.50 66.42 263.60 64.05
  C 268.72 62.05 272.52 66.37 276.19 69.27
  Q 289.35 79.65 303.63 88.38
  Q 305.31 89.40 319.30 96.94
  Q 341.39 108.84 359.00 126.97
  C 361.62 129.67 363.93 133.62 366.09 136.57
  Q 373.67 146.96 377.66 159.72
  Q 379.02 164.07 376.91 160.03
  Q 372.14 150.90 361.98 144.78
  Q 361.38 144.41 360.91 144.63
  Q 360.40 144.87 360.88 145.17
  Z"
/>
<path fill="#5e3860" d="
  M 134.11 142.75
  C 127.52 145.17 119.51 152.28 116.58 158.61
  Q 113.55 165.16 115.88 158.27
  C 118.63 150.14 122.25 141.80 128.01 134.93
  C 131.73 130.49 135.36 125.50 139.33 121.67
  Q 147.26 114.03 156.10 107.51
  C 164.56 101.27 175.87 95.56 186.04 89.87
  C 197.35 83.53 207.39 75.56 217.03 67.17
  C 220.96 63.74 225.08 62.26 229.29 65.72
  C 242.65 76.72 221.28 100.34 213.88 108.10
  C 207.30 114.99 197.03 122.57 188.56 127.91
  C 178.64 134.16 167.57 140.81 159.10 147.19
  C 150.68 153.54 142.22 160.46 136.05 169.09
  Q 109.94 205.59 119.46 250.09
  Q 119.66 251.07 118.98 250.35
  Q 117.73 249.04 116.78 246.95
  C 105.42 221.79 102.76 195.49 113.60 169.74
  C 114.76 166.98 115.65 164.11 117.14 161.64
  Q 123.77 150.59 134.29 143.11
  Q 135.54 142.22 134.11 142.75
  Z"
/>
<path fill="#5e3860" d="
  M 170.58 93.53
  Q 171.40 93.90 170.50 93.95
  Q 170.39 93.96 169.96 94.23
  C 148.43 107.93 125.00 127.55 115.23 151.46
  C 107.12 171.31 103.26 195.62 105.81 217.68
  Q 105.86 218.09 106.28 219.10
  Q 106.57 219.79 105.90 219.46
  Q 105.63 219.32 105.40 219.17
  Q 105.17 219.03 105.03 218.74
  C 88.22 183.89 101.36 138.52 125.44 110.33
  C 136.84 96.98 151.92 85.18 170.58 93.53
  Z"
/>
<path fill="#5e3860" d="
  M 385.22 218.31
  C 387.75 200.44 386.29 181.61 382.12 164.57
  C 378.32 149.01 370.21 136.59 359.97 124.34
  C 355.48 118.97 350.53 115.32 345.66 111.09
  C 338.30 104.71 330.24 99.29 321.93 94.16
  A 0.40 0.40 0.0 0 1 321.96 93.46
  C 346.52 81.64 371.76 112.03 381.52 131.09
  C 394.41 156.28 399.36 192.75 385.51 218.41
  A 0.16 0.15 63.7 0 1 385.22 218.31
  Z"
/>
<path fill="#5e3860" d="
  M 258.41 151.40
  C 255.51 145.21 249.91 134.99 258.27 129.81
  C 261.98 127.51 267.69 130.12 269.69 133.34
  C 273.67 139.74 271.93 152.24 263.31 153.57
  C 260.79 153.95 259.58 153.92 258.41 151.40
  Z"
/>
<path fill="#722070" d="
  M 240.08 155.14
  L 243.05 156.56
  Q 243.59 156.83 243.59 157.43
  C 243.52 163.29 239.43 162.40 235.67 160.81
  A 0.36 0.35 19.8 0 0 235.19 161.03
  C 232.44 170.70 218.47 173.38 221.45 159.48
  A 0.71 0.70 -69.9 0 0 221.09 158.70
  C 217.27 156.67 212.33 153.42 217.42 148.92
  Q 217.81 148.58 217.56 148.13
  Q 216.37 145.95 217.44 142.70
  C 218.74 138.75 222.88 139.63 226.02 140.02
  A 0.88 0.87 -67.7 0 0 226.84 139.67
  C 230.83 134.10 238.39 138.54 238.79 144.37
  Q 238.82 144.86 238.53 145.24
  L 237.46 146.65
  A 0.79 0.79 0.0 0 0 237.52 147.68
  Q 240.31 150.50 239.73 154.47
  A 0.64 0.63 -73.2 0 0 240.08 155.14
  Z"
/>
<path fill="#5e3860" d="
  M 295.56 166.92
  C 293.20 162.19 293.69 152.88 300.54 151.98
  Q 308.48 150.93 310.56 157.45
  C 312.50 163.52 308.23 167.21 305.76 171.86
  Q 305.51 172.33 305.01 172.52
  Q 301.31 173.94 297.32 174.00
  Q 296.54 174.01 296.73 173.25
  L 297.79 169.12
  Q 297.91 168.65 297.50 168.41
  L 296.24 167.66
  Q 295.79 167.39 295.56 166.92
  Z"
/>
<path fill="#722070" d="
  M 268.70 154.81
  C 272.35 166.30 261.96 179.96 251.95 185.42
  A 0.38 0.38 0.0 0 1 251.39 185.11
  C 250.43 171.87 250.75 155.86 267.97 154.32
  A 0.70 0.70 0.0 0 1 268.70 154.81
  Z"
/>
<path fill="#722070" d="
  M 254.18 185.69
  C 268.19 181.15 281.38 175.00 274.76 156.75
  A 0.30 0.30 0.0 0 1 275.18 156.39
  C 284.38 161.30 284.55 173.64 278.78 181.27
  C 269.79 193.18 257.64 200.45 245.06 206.98
  A 0.21 0.21 0.0 0 1 244.77 206.74
  Q 247.86 196.54 252.65 187.00
  A 2.64 2.61 4.2 0 1 254.18 185.69
  Z"
/>
<path fill="#5e3860" d="
  M 370.60 236.82
  C 368.26 261.40 354.57 281.20 337.92 297.87
  Q 337.56 298.23 337.55 297.72
  Q 337.54 294.83 338.00 293.79
  Q 346.51 274.89 348.68 265.93
  C 355.83 236.39 348.99 212.38 338.80 184.11
  C 335.22 174.18 333.15 166.01 338.56 157.61
  Q 340.00 155.38 341.43 157.61
  Q 344.56 162.50 347.66 166.33
  C 360.15 181.70 366.13 198.19 369.37 217.29
  Q 371.35 228.92 370.60 236.82
  Z"
/>
<path fill="#5e3860" d="
  M 155.24 300.18
  C 148.90 294.56 143.13 288.27 137.96 281.56
  C 136.00 279.02 134.65 275.92 133.20 273.56
  C 115.81 245.08 117.87 217.03 131.84 187.58
  C 136.95 176.82 144.46 166.85 152.31 157.47
  A 0.67 0.66 -40.0 0 1 153.39 157.56
  C 163.57 175.14 148.04 197.58 143.47 215.37
  Q 135.48 246.55 146.64 277.10
  C 149.31 284.39 156.15 292.07 156.01 299.85
  A 0.46 0.46 0.0 0 1 155.24 300.18
  Z"
/>
<path fill="#722070" d="
  M 200.21 197.23
  Q 200.55 197.33 200.92 197.15
  C 210.59 192.57 219.88 187.10 230.99 188.02
  C 233.86 188.25 235.78 187.62 237.07 184.83
  C 239.58 179.40 242.02 171.35 239.05 165.73
  A 0.55 0.55 0.0 0 1 239.83 165.01
  Q 249.26 170.95 246.13 182.08
  C 245.08 185.84 241.73 191.96 237.44 194.28
  C 234.46 195.89 230.51 194.80 227.28 194.29
  A 0.41 0.41 0.0 0 0 227.03 195.07
  Q 234.38 198.76 238.13 206.40
  Q 253.54 237.78 250.52 272.26
  Q 249.82 280.25 246.07 288.30
  A 0.82 0.82 0.0 0 1 245.33 288.77
  L 231.75 288.87
  Q 231.12 288.87 231.55 288.41
  Q 244.83 274.12 244.47 254.47
  Q 244.47 254.21 244.37 254.06
  Q 244.28 253.93 244.18 253.87
  Q 243.99 253.76 244.00 253.98
  C 244.61 266.02 237.33 278.45 228.52 286.53
  Q 224.96 289.80 220.53 288.87
  A 1.08 1.08 0.0 0 1 219.79 288.29
  C 217.12 282.83 214.04 277.14 211.94 271.88
  C 203.77 251.45 200.54 227.83 205.52 206.02
  C 206.18 203.12 206.46 201.58 209.29 200.14
  Q 216.38 196.55 224.30 195.83
  Q 225.07 195.75 225.35 195.24
  A 0.59 0.59 0.0 0 0 224.71 194.39
  C 216.06 196.15 207.40 197.30 199.87 202.66
  Q 192.38 207.99 184.81 213.22
  C 182.76 214.63 180.07 214.74 178.59 217.57
  Q 178.32 218.07 177.94 217.66
  Q 169.96 209.22 163.41 199.70
  C 162.74 198.74 161.91 198.21 160.99 197.35
  A 0.27 0.27 0.0 0 1 161.32 196.92
  L 164.47 198.75
  Q 165.02 199.07 165.34 198.52
  Q 170.53 189.42 178.49 185.23
  C 185.81 181.38 202.41 172.96 197.05 162.85
  Q 196.63 162.05 196.66 161.57
  Q 196.70 161.06 196.92 160.67
  Q 197.24 160.12 197.48 160.70
  C 200.86 168.62 206.04 168.93 213.69 169.80
  Q 214.15 169.85 214.15 170.32
  L 214.17 175.95
  Q 214.17 176.42 213.73 176.27
  L 206.34 173.77
  A 0.63 0.61 38.5 0 0 205.83 173.82
  L 205.46 174.04
  Q 205.15 174.22 205.48 174.36
  L 214.11 177.92
  A 0.85 0.84 -69.6 0 1 214.59 178.97
  L 210.58 191.16
  A 1.02 1.01 -4.7 0 1 210.08 191.74
  L 200.16 196.76
  Q 199.57 197.06 200.21 197.23
  Z
  M 212.6425 179.4451
  A 0.50 0.50 0.0 0 0 212.3347 178.8085
  L 202.9854 175.5527
  A 0.50 0.50 0.0 0 0 202.3488 175.8605
  L 202.1975 176.2949
  A 0.50 0.50 0.0 0 0 202.5053 176.9315
  L 211.8546 180.1873
  A 0.50 0.50 0.0 0 0 212.4912 179.8795
  L 212.6425 179.4451
  Z
  M 209.35 181.56
  Q 205.58 178.70 201.15 177.87
  Q 200.76 177.80 200.49 177.96
  Q 200.18 178.15 199.98 178.49
  A 0.30 0.29 -68.4 0 0 200.16 178.92
  C 203.72 179.80 205.63 181.88 209.19 182.02
  A 0.26 0.25 64.4 0 0 209.35 181.56
  Z
  M 204.56 182.94
  Q 201.90 181.46 199.01 179.92
  A 1.18 1.18 0.0 0 0 197.60 181.77
  Q 197.75 181.94 198.17 181.69
  Q 198.60 181.43 199.05 181.68
  L 205.20 185.08
  A 0.58 0.58 0.0 0 0 206.01 184.33
  Q 205.66 183.54 204.56 182.94
  Z
  M 200.76 187.49
  Q 197.15 186.66 193.86 184.97
  Q 193.35 184.70 193.01 184.75
  Q 192.50 184.81 192.19 185.23
  Q 191.89 185.63 192.35 185.82
  L 200.27 189.16
  A 0.85 0.84 38.7 0 0 201.06 189.08
  Q 201.82 188.56 201.76 187.63
  A 0.44 0.43 -13.2 0 1 202.03 187.20
  L 203.19 186.72
  Q 204.13 186.33 203.27 185.80
  Q 199.49 183.50 195.13 182.84
  A 0.55 0.54 -30.3 0 0 194.85 183.89
  Q 197.47 184.87 200.29 185.72
  Q 201.48 186.08 201.46 186.95
  A 0.57 0.57 0.0 0 1 200.76 187.49
  Z
  M 198.8721 190.8399
  A 0.37 0.37 0.0 0 0 198.6974 190.3466
  L 190.3575 186.3687
  A 0.37 0.37 0.0 0 0 189.8643 186.5434
  L 189.4079 187.5001
  A 0.37 0.37 0.0 0 0 189.5826 187.9934
  L 197.9225 191.9713
  A 0.37 0.37 0.0 0 0 198.4157 191.7966
  L 198.8721 190.8399
  Z
  M 196.8039 194.2070
  A 0.71 0.71 0.0 0 0 196.4820 193.2559
  L 186.8537 188.4973
  A 0.71 0.71 0.0 0 0 185.9027 188.8192
  L 185.8761 188.8730
  A 0.71 0.71 0.0 0 0 186.1980 189.8241
  L 195.8263 194.5827
  A 0.71 0.71 0.0 0 0 196.7773 194.2608
  L 196.8039 194.2070
  Z
  M 182.79 191.60
  L 181.96 192.33
  Q 181.33 192.20 181.05 192.94
  A 0.75 0.75 0.0 0 0 181.42 193.87
  L 190.75 198.39
  A 0.76 0.74 -50.3 0 0 191.53 198.31
  Q 192.17 197.83 191.93 197.58
  Q 191.91 197.12 192.50 196.80
  Q 193.77 196.09 192.90 195.36
  Q 191.25 193.96 186.11 191.53
  Q 185.66 191.31 185.34 190.93
  Q 184.17 189.54 182.79 191.60
  Z
  M 188.69 199.44
  L 179.76 194.41
  Q 179.25 194.12 178.88 194.58
  L 178.65 194.88
  A 1.03 1.03 0.0 0 0 179.09 196.48
  Q 184.23 198.46 188.07 200.35
  Q 188.81 200.72 188.96 200.05
  A 0.57 0.56 21.6 0 0 188.69 199.44
  Z
  M 186.9436 203.1312
  A 0.27 0.27 0.0 0 0 186.8668 202.7572
  L 176.7318 196.0744
  A 0.27 0.27 0.0 0 0 176.3577 196.1511
  L 176.0164 196.6688
  A 0.27 0.27 0.0 0 0 176.0932 197.0428
  L 186.2282 203.7256
  A 0.27 0.27 0.0 0 0 186.6023 203.6489
  L 186.9436 203.1312
  Z
  M 183.2266 206.8003
  A 0.27 0.27 0.0 0 0 183.1662 206.4233
  L 172.7167 198.8591
  A 0.27 0.27 0.0 0 0 172.3397 198.9195
  L 172.0934 199.2597
  A 0.27 0.27 0.0 0 0 172.1538 199.6367
  L 182.6033 207.2009
  A 0.27 0.27 0.0 0 0 182.9803 207.1405
  L 183.2266 206.8003
  Z
  M 182.1920 211.7226
  A 0.44 0.44 0.0 0 0 182.0861 211.1094
  L 166.3642 200.0188
  A 0.44 0.44 0.0 0 0 165.7511 200.1247
  L 165.7280 200.1574
  A 0.44 0.44 0.0 0 0 165.8339 200.7706
  L 181.5558 211.8612
  A 0.44 0.44 0.0 0 0 182.1689 211.7553
  L 182.1920 211.7226
  Z"
/>
<path fill="#722070" d="
  M 224.60 170.34
  Q 229.98 170.96 233.17 167.04
  A 1.74 1.74 0.0 0 1 235.97 167.19
  C 239.27 172.26 237.03 178.12 236.71 183.68
  A 2.49 2.48 0.8 0 1 234.30 186.02
  L 223.68 186.34
  A 0.81 0.80 68.0 0 1 223.06 186.07
  Q 220.67 183.37 221.04 179.74
  A 1.15 1.15 0.0 0 0 220.63 178.74
  L 219.04 177.46
  Q 218.57 177.08 218.53 176.47
  Q 218.31 173.16 219.65 170.17
  A 1.07 1.07 0.0 0 1 220.44 169.55
  C 222.11 169.25 223.34 170.20 224.60 170.34
  Z"
/>
<path fill="#722070" d="
  M 289.22 197.75
  A 0.43 0.42 -29.6 0 0 289.00 198.54
  L 296.99 203.18
  A 0.77 0.77 0.0 0 1 296.62 204.61
  Q 292.89 204.66 289.57 206.26
  Q 289.15 206.46 288.90 206.07
  C 281.84 195.34 277.36 184.22 285.60 172.91
  Q 285.95 172.43 286.08 173.01
  C 288.97 185.49 292.02 195.35 306.23 197.48
  Q 307.47 197.67 306.40 197.01
  Q 305.69 196.58 304.50 196.22
  C 296.15 193.72 289.63 183.94 295.08 175.75
  Q 295.34 175.35 295.79 175.51
  C 300.23 177.08 306.78 176.56 308.27 171.11
  A 1.17 1.17 0.0 0 1 310.21 170.58
  C 320.58 180.51 320.12 192.19 314.67 204.49
  A 2.02 2.02 0.0 0 1 312.74 205.68
  Q 300.53 205.13 290.69 198.04
  Q 290.29 197.75 289.80 197.75
  L 289.22 197.75
  Z
  M 309.0418 185.1671
  A 0.26 0.26 0.0 0 0 308.7855 184.9035
  L 308.3855 184.8979
  A 0.26 0.26 0.0 0 0 308.1219 185.1542
  L 307.9382 198.3129
  A 0.26 0.26 0.0 0 0 308.1945 198.5765
  L 308.5945 198.5821
  A 0.26 0.26 0.0 0 0 308.8581 198.3258
  L 309.0418 185.1671
  Z"
/>
<path fill="#722070" d="
  M 212.78 188.99
  C 213.79 186.70 215.42 183.42 215.51 180.98
  A 0.36 0.36 0.0 0 1 216.22 180.91
  L 217.71 187.49
  Q 217.87 188.19 217.17 188.40
  L 213.27 189.55
  Q 212.41 189.81 212.78 188.99
  Z"
/>
<path fill="#5e3860" d="
  M 182.79 191.60
  L 192.50 196.80
  Q 191.91 197.12 191.93 197.58
  L 181.96 192.33
  L 182.79 191.60
  Z"
/>
<path fill="#722070" d="
  M 272.80 287.74
  Q 272.77 288.12 272.49 288.45
  L 262.41 288.43
  Q 262.03 288.43 262.24 288.12
  C 273.12 272.00 273.53 250.51 269.41 232.25
  A 0.20 0.20 0.0 0 0 269.02 232.30
  C 269.03 232.93 269.42 233.71 269.45 234.34
  C 270.46 254.53 270.69 270.38 258.95 287.89
  A 1.06 1.05 -73.9 0 1 258.12 288.35
  L 250.18 288.55
  Q 249.80 288.56 249.96 288.22
  C 261.25 264.32 256.25 232.24 247.37 208.44
  A 0.84 0.83 63.7 0 1 247.70 207.45
  L 267.36 194.78
  A 0.63 0.63 0.0 0 1 268.28 195.05
  C 277.37 215.54 279.40 237.08 279.08 259.25
  C 278.95 268.42 277.63 278.62 272.88 286.65
  Q 272.62 287.10 272.80 287.74
  Z"
/>
<path fill="#722070" d="
  M 206.09 288.94
  A 1.84 1.83 -20.5 0 1 204.58 288.26
  C 199.30 281.76 197.08 275.04 194.19 266.10
  C 188.16 247.41 182.62 216.67 202.45 203.34
  Q 203.75 202.48 203.32 203.97
  C 195.18 232.34 200.44 262.49 214.28 288.20
  Q 214.48 288.58 214.05 288.60
  L 206.09 288.94
  Z"
/>
<path fill="#5a2166" d="
  M 272.49 288.45
  Q 272.77 288.12 272.80 287.74
  Q 273.28 288.32 273.78 287.73
  C 278.65 282.00 280.63 275.58 281.37 267.58
  Q 282.87 251.42 282.46 231.28
  C 282.31 224.10 286.93 207.77 295.66 206.11
  C 306.27 204.09 309.66 212.90 312.13 221.03
  Q 319.49 245.31 327.59 269.35
  C 329.72 275.69 332.63 281.62 335.68 287.62
  Q 335.99 288.22 335.31 288.22
  L 272.49 288.45
  Z"
/>
<path fill="#052326" d="
  M 160.45 293.15
  L 332.72 294.31
  A 0.28 0.28 0.0 0 1 332.99 294.59
  L 332.76 301.78
  A 0.53 0.53 0.0 0 1 332.23 302.29
  C 264.63 302.13 217.49 302.98 160.13 302.21
  Q 159.39 302.20 159.42 301.47
  L 159.71 293.86
  Q 159.74 293.15 160.45 293.15
  Z"
/>
<path fill="#052326" d="
  M 244.99 416.48
  C 245.05 413.44 245.44 411.02 243.96 408.17
  Q 241.89 404.21 241.45 402.76
  Q 235.28 382.13 232.87 374.86
  A 0.78 0.76 80.1 0 0 232.13 374.33
  L 188.96 374.87
  A 0.68 0.67 -9.6 0 0 188.33 375.75
  Q 190.10 381.34 189.83 387.31
  C 189.62 391.91 186.38 394.68 186.02 399.24
  Q 185.23 409.52 184.14 419.75
  Q 184.08 420.30 183.69 420.69
  L 181.90 422.47
  A 0.55 0.54 37.9 0 0 182.01 423.32
  L 184.54 424.83
  A 0.88 0.86 -79.3 0 1 184.96 425.46
  Q 185.16 426.91 184.16 427.96
  Q 183.78 428.36 183.77 428.90
  L 183.71 433.00
  A 0.84 0.84 0.0 0 1 182.81 433.82
  L 177.50 433.44
  Q 176.62 433.38 176.60 432.50
  L 176.54 428.91
  A 0.60 0.59 19.2 0 0 176.31 428.44
  Q 175.02 427.46 175.25 425.76
  A 0.98 0.97 80.6 0 1 175.78 425.02
  Q 178.86 423.43 176.55 420.51
  Q 176.24 420.13 176.21 419.64
  L 174.77 396.51
  A 0.96 0.91 -65.1 0 0 174.63 396.09
  C 170.09 388.91 171.91 383.42 173.94 375.73
  Q 174.07 375.25 173.57 375.25
  L 157.37 375.16
  A 0.56 0.55 -87.2 0 1 156.82 374.55
  L 157.17 371.03
  Q 157.25 370.25 156.47 370.25
  L 155.45 370.25
  A 0.58 0.58 0.0 0 1 154.87 369.60
  Q 156.05 359.31 153.31 349.32
  Q 153.15 348.77 153.63 348.45
  L 155.15 347.42
  Q 155.61 347.11 155.92 346.66
  C 158.02 343.59 160.29 340.75 161.44 337.28
  C 164.10 329.34 163.19 320.18 163.52 311.98
  C 163.70 307.70 166.38 305.98 170.53 305.65
  C 179.96 304.88 192.15 305.44 198.78 305.41
  Q 258.73 305.09 318.69 305.32
  C 324.87 305.34 329.80 305.02 330.00 312.27
  Q 330.26 321.37 330.26 330.41
  C 330.27 338.93 333.16 344.79 340.46 349.10
  A 0.81 0.80 -67.1 0 1 340.82 350.00
  Q 338.35 359.33 339.74 368.89
  Q 339.80 369.36 339.34 369.44
  L 338.58 369.57
  Q 337.91 369.69 338.03 370.36
  L 338.69 373.97
  Q 338.95 375.35 337.54 375.31
  L 322.52 374.84
  A 0.60 0.59 -5.0 0 0 321.92 375.55
  Q 323.30 382.45 322.90 389.17
  C 322.66 393.25 320.04 395.50 319.78 399.19
  Q 319.03 409.74 318.36 420.26
  Q 318.33 420.77 317.98 421.13
  L 316.51 422.65
  Q 316.09 423.08 316.52 423.50
  C 317.93 424.90 320.18 425.83 318.17 428.14
  Q 317.81 428.55 317.79 429.09
  L 317.67 433.02
  A 0.65 0.64 1.8 0 1 317.00 433.64
  L 311.08 433.44
  Q 310.31 433.41 310.30 432.65
  L 310.22 429.06
  Q 310.21 428.49 309.96 427.99
  Q 308.63 425.36 311.60 424.16
  A 0.57 0.57 0.0 0 0 311.84 423.29
  L 310.15 421.08
  Q 309.85 420.70 309.84 420.22
  C 309.55 413.03 308.43 405.93 308.04 398.80
  C 307.81 394.63 304.15 392.13 304.09 387.61
  Q 304.02 381.76 306.02 376.40
  A 0.29 0.29 0.0 0 0 305.76 376.01
  L 260.48 374.46
  Q 259.26 374.42 259.16 375.64
  C 258.78 380.28 260.19 386.59 258.40 390.89
  Q 254.92 399.28 251.41 407.67
  C 250.24 410.45 250.85 412.80 250.72 415.74
  Q 250.70 416.31 251.02 416.77
  Q 252.45 418.83 252.10 421.48
  A 0.59 0.59 0.0 0 1 251.51 422.00
  L 243.50 422.00
  Q 243.00 422.00 243.00 421.50
  L 243.00 419.79
  Q 243.00 419.48 242.95 419.17
  Q 242.65 417.37 244.46 417.09
  Q 244.97 417.01 244.99 416.48
  Z
  M 319.26 324.01
  C 315.46 323.96 311.67 323.03 307.95 322.92
  Q 247.89 321.13 187.81 322.64
  Q 181.90 322.79 176.01 323.30
  Q 175.00 323.39 174.43 323.91
  A 0.41 0.41 0.0 0 0 174.66 324.62
  C 184.16 325.67 193.33 326.51 203.15 326.59
  Q 243.92 326.94 284.69 326.57
  Q 303.53 326.39 319.25 324.98
  Q 319.73 324.94 319.73 324.50
  Q 319.74 324.02 319.26 324.01
  Z
  M 165.78 353.71
  L 181.12 353.77
  Q 181.31 353.77 181.31 353.58
  L 180.88 344.43
  Q 180.86 344.00 180.42 344.00
  L 178.44 344.00
  Q 177.87 344.00 177.84 344.57
  L 177.48 350.92
  Q 177.44 351.52 176.85 351.61
  L 175.69 351.78
  Q 175.00 351.88 175.00 351.18
  L 175.00 345.08
  Q 175.00 344.64 174.57 344.58
  L 172.13 344.24
  A 0.62 0.62 0.0 0 0 171.43 344.89
  L 171.78 351.09
  A 1.20 1.19 67.1 0 1 171.40 352.03
  Q 170.29 353.05 169.56 351.71
  C 168.86 350.41 169.25 346.60 169.46 345.14
  A 0.43 0.43 0.0 0 0 168.65 344.89
  C 167.69 346.81 164.71 350.94 165.00 353.02
  A 0.80 0.79 -3.3 0 0 165.78 353.71
  Z
  M 188.0175 344.6544
  A 0.48 0.48 0.0 0 0 187.5383 344.1736
  L 183.4583 344.1664
  A 0.48 0.48 0.0 0 0 182.9775 344.6456
  L 182.9625 353.2456
  A 0.48 0.48 0.0 0 0 183.4417 353.7264
  L 187.5217 353.7336
  A 0.48 0.48 0.0 0 0 188.0025 353.2544
  L 188.0175 344.6544
  Z
  M 194.11 353.83
  A 0.22 0.22 0.0 0 0 194.33 353.55
  Q 193.26 349.30 193.90 344.89
  Q 194.00 344.19 193.29 344.14
  L 190.62 343.97
  A 0.76 0.76 0.0 0 0 189.81 344.73
  L 189.79 353.24
  Q 189.78 353.70 190.25 353.72
  L 194.11 353.83
  Z
  M 207.13 352.40
  A 1.06 1.05 40.0 0 1 205.05 352.58
  Q 204.16 348.92 204.58 345.07
  Q 204.65 344.42 204.00 344.29
  L 203.08 344.11
  A 0.96 0.96 0.0 0 0 201.94 345.11
  L 202.29 350.82
  Q 202.33 351.42 201.88 351.80
  Q 200.88 352.66 199.81 351.68
  Q 199.50 351.39 199.50 350.97
  L 199.50 344.77
  A 0.62 0.62 0.0 0 0 198.83 344.15
  L 196.62 344.28
  A 0.61 0.61 0.0 0 0 196.04 344.88
  L 195.90 353.54
  Q 195.90 353.87 196.23 353.87
  L 216.83 353.80
  Q 217.45 353.80 217.42 353.18
  L 217.00 344.90
  Q 216.97 344.27 216.34 344.27
  L 214.00 344.24
  A 0.56 0.55 -1.5 0 0 213.44 344.82
  L 213.79 350.97
  A 0.69 0.69 0.0 0 1 213.06 351.70
  L 211.92 351.63
  Q 211.25 351.59 211.25 350.92
  L 211.25 344.75
  A 0.64 0.64 0.0 0 0 210.56 344.11
  L 208.03 344.29
  Q 207.62 344.32 207.60 344.73
  L 207.13 352.40
  Z
  M 233.21 351.93
  L 231.90 352.00
  A 0.65 0.65 0.0 0 1 231.21 351.33
  L 231.34 344.80
  Q 231.35 344.25 230.80 344.25
  L 227.66 344.25
  A 0.60 0.60 0.0 0 0 227.06 344.83
  L 226.85 353.20
  Q 226.84 353.81 227.44 353.81
  L 260.87 353.78
  Q 261.46 353.78 261.44 353.20
  L 261.17 345.11
  A 0.59 0.58 0.6 0 0 260.61 344.55
  L 256.84 344.36
  A 0.56 0.55 1.5 0 0 256.25 344.91
  L 256.24 352.10
  A 0.84 0.83 44.9 0 1 254.57 352.10
  L 254.53 344.50
  A 0.54 0.53 -3.3 0 0 253.93 343.97
  L 251.19 344.32
  Q 250.75 344.37 250.75 344.82
  L 250.75 351.25
  Q 250.75 352.00 250.00 352.00
  L 248.63 352.00
  Q 248.00 352.00 248.00 351.37
  L 248.00 344.57
  Q 248.00 343.88 247.32 343.97
  L 245.90 344.13
  Q 245.27 344.21 245.27 344.84
  L 245.22 351.32
  A 1.35 1.34 -45.0 0 1 242.53 351.32
  L 242.48 344.61
  Q 242.48 343.98 241.85 343.99
  L 240.51 344.02
  A 0.78 0.78 0.0 0 0 239.75 344.79
  L 239.74 351.44
  A 1.34 1.34 0.0 0 1 237.06 351.45
  L 236.97 345.02
  A 0.70 0.70 0.0 0 0 236.27 344.33
  L 234.01 344.33
  Q 233.44 344.33 233.48 344.91
  L 233.88 351.18
  Q 233.92 351.89 233.21 351.93
  Z
  M 286.86 351.48
  L 285.24 351.51
  Q 284.70 351.52 284.71 350.99
  L 284.83 344.56
  Q 284.84 343.98 284.26 343.99
  L 282.41 344.02
  Q 281.70 344.03 281.72 344.75
  Q 281.83 348.09 281.68 351.44
  Q 281.63 352.53 280.89 352.81
  A 0.95 0.95 0.0 0 1 279.61 351.99
  L 279.15 344.95
  Q 279.11 344.22 278.38 344.26
  L 277.01 344.32
  Q 276.43 344.35 276.48 344.92
  L 276.99 351.21
  Q 277.05 351.89 276.36 351.93
  L 274.92 352.02
  A 0.86 0.86 0.0 0 1 274.00 351.16
  L 274.00 344.75
  Q 274.00 344.24 273.49 344.24
  L 270.67 344.27
  A 0.63 0.62 0.0 0 0 270.04 344.89
  L 269.92 353.35
  Q 269.92 353.78 270.35 353.78
  L 291.37 353.81
  Q 291.71 353.81 291.68 353.47
  L 290.83 344.80
  A 0.58 0.58 0.0 0 0 290.25 344.27
  L 288.13 344.24
  Q 287.50 344.24 287.50 344.87
  L 287.50 350.83
  A 0.66 0.65 -0.9 0 1 286.86 351.48
  Z
  M 298.5327 344.3833
  A 0.26 0.26 0.0 0 0 298.2700 344.1261
  L 293.6503 344.1745
  A 0.26 0.26 0.0 0 0 293.3930 344.4372
  L 293.4873 353.4367
  A 0.26 0.26 0.0 0 0 293.7500 353.6939
  L 298.3697 353.6455
  A 0.26 0.26 0.0 0 0 298.6270 353.3828
  L 298.5327 344.3833
  Z
  M 319.94 352.44
  A 0.84 0.84 0.0 0 1 318.30 352.53
  Q 317.26 348.72 317.95 344.67
  Q 318.04 344.10 317.47 344.02
  Q 316.83 343.94 316.17 344.05
  Q 315.77 344.11 315.38 344.01
  Q 314.35 343.76 313.93 344.53
  C 313.30 345.67 314.28 349.61 313.58 351.32
  Q 312.87 353.06 311.39 352.36
  A 1.55 1.55 0.0 0 1 310.50 350.96
  L 310.50 344.65
  Q 310.50 343.98 309.83 343.99
  L 307.50 344.06
  Q 306.89 344.07 306.92 344.69
  L 307.28 350.69
  A 0.70 0.69 86.7 0 1 306.63 351.43
  L 305.05 351.53
  A 0.78 0.78 0.0 0 1 304.22 350.73
  L 304.34 344.86
  Q 304.35 344.32 303.80 344.32
  L 301.32 344.32
  A 0.62 0.61 0.5 0 0 300.70 344.92
  L 300.44 353.12
  Q 300.42 353.82 301.12 353.81
  L 326.65 353.54
  A 0.62 0.62 0.0 0 0 327.19 352.63
  L 322.88 344.55
  A 1.56 1.56 0.0 0 0 319.96 345.53
  Q 320.50 348.98 319.94 352.44
  Z
  M 224.5148 344.4403
  A 0.27 0.27 0.0 0 0 224.2324 344.1833
  L 219.0582 344.4273
  A 0.27 0.27 0.0 0 0 218.8012 344.7097
  L 219.2252 353.6997
  A 0.27 0.27 0.0 0 0 219.5076 353.9567
  L 224.6818 353.7127
  A 0.27 0.27 0.0 0 0 224.9388 353.4303
  L 224.5148 344.4403
  Z
  M 267.8041 344.5151
  A 0.27 0.27 0.0 0 0 267.5290 344.2504
  L 263.3098 344.3314
  A 0.27 0.27 0.0 0 0 263.0450 344.6065
  L 263.2159 353.5049
  A 0.27 0.27 0.0 0 0 263.4910 353.7696
  L 267.7102 353.6886
  A 0.27 0.27 0.0 0 0 267.9750 353.4135
  L 267.8041 344.5151
  Z
  M 186.67 362.93
  Q 186.28 363.19 186.20 362.53
  Q 186.14 362.08 185.70 362.15
  L 181.19 362.88
  A 0.32 0.32 0.0 0 0 181.16 363.50
  Q 183.90 364.22 187.01 363.42
  Q 196.98 364.10 207.00 364.21
  Q 248.34 364.65 289.67 364.77
  C 296.15 364.79 302.46 364.33 308.95 363.93
  A 0.27 0.27 0.0 0 0 308.98 363.39
  Q 299.78 362.04 290.25 361.99
  Q 239.62 361.74 188.99 362.37
  Q 188.56 362.37 188.14 362.49
  L 186.67 362.93
  Z
  M 234.81 375.17
  C 235.49 376.96 237.20 379.05 237.80 380.41
  Q 241.62 389.12 244.49 398.18
  A 0.06 0.05 -22.7 0 0 244.57 398.21
  L 244.81 398.08
  A 0.16 0.15 72.7 0 0 244.89 397.91
  C 243.48 391.09 244.10 382.42 243.94 375.41
  A 0.93 0.93 0.0 0 0 243.01 374.50
  L 235.27 374.50
  Q 234.55 374.50 234.81 375.17
  Z
  M 250.20 374.29
  A 1.23 1.23 0.0 0 0 248.89 375.55
  L 249.46 396.71
  Q 249.47 397.17 249.36 397.60
  Q 249.14 398.39 249.25 399.23
  A 0.25 0.25 0.0 0 0 249.74 399.26
  Q 252.61 386.90 258.17 375.47
  A 0.50 0.49 -75.1 0 0 257.76 374.76
  L 250.20 374.29
  Z"
/>
<path fill="#722070" d="
  M 186.67 362.93
  L 187.01 363.42
  Q 183.90 364.22 181.16 363.50
  A 0.32 0.32 0.0 0 1 181.19 362.88
  L 185.70 362.15
  Q 186.14 362.08 186.20 362.53
  Q 186.28 363.19 186.67 362.93
  Z"
/>
</svg>
